<?xml version="1.0" standalone="no"?><!DOCTYPE svg PUBLIC "-//W3C//DTD SVG 1.1//EN" "http://www.w3.org/Graphics/SVG/1.1/DTD/svg11.dtd"><svg t="1533714433490" class="icon" style="" viewBox="0 0 1024 1024" version="1.1" xmlns="http://www.w3.org/2000/svg" p-id="4223" xmlns:xlink="http://www.w3.org/1999/xlink" width="16" height="16"><defs><style type="text/css"></style></defs><path d="M942.8 860.4L739.5 652.3c-2-2-4.5-2.9-6.7-4.6 42.6-60 67.9-133.2 67.9-212.4 0-203.1-164.7-367.8-367.8-367.8-203.1 0-367.8 164.7-367.8 367.8C65.1 638.4 229.8 803 432.9 803c84 0 161.1-28.4 223-75.8 1.1 1.3 1.5 2.9 2.7 4.1l203.3 208.1c11 11.3 25.8 17 40.4 17 14.3 0 28.6-5.4 39.6-16.1 22.3-21.7 22.7-57.6 0.9-79.9zM121.7 435.3c0-171.6 139.6-311.2 311.2-311.2s311.2 139.6 311.2 311.2-139.6 311.2-311.2 311.2c-171.6-0.1-311.2-139.6-311.2-311.2z" p-id="4224" fill="#707070"></path></svg>